# xmcd
#
# Track frame offsets: 
#        150
#        10394
#        25648
#        38138
#        48350
#        64075
#        75142
#        92724
#        110381
#        128461
#
# Disc length: 1904 seconds
#
# Revision: 0
# Processed by: cddbd v1.5.2PL0 Copyright (c) Steve Scherf et al.
# Submitted via: ExactAudioCopyFreeDBPlugin 1.0
#
DISCID=68076e0a
DTITLE=Range War - Home on the Rage
DYEAR=1985
DGENRE=Country
TTITLE0=No Right to Do Me Wrong
TTITLE1=King of the 12oz Bottles
TTITLE2=Blue Water
TTITLE3=C-H-E-A-T-I-N
TTITLE4=Let the Thunder Roll
TTITLE5=Dark Side of the Dance Floor
TTITLE6=Hearts at High Noon
TTITLE7=Don't Tread on Me
TTITLE8=Two Wheels to the Wind
TTITLE9=If They Ain't Got Cold Beer in Heaven, Who in the Hell Would W
TTITLE9=ant to Go?
EXTD=
EXTT0=
EXTT1=
EXTT2=
EXTT3=
EXTT4=
EXTT5=
EXTT6=
EXTT7=
EXTT8=
EXTT9=
PLAYORDER=
